<svg xmlns="http://www.w3.org/2000/svg" viewBox="0 0 24 24" role="img" aria-labelledby="title">
  <title id="title">GitHub</title>
  <path fill="#000" d="M12 .6C5.65.6.5 5.75.5 12.1c0 5.08 3.29 9.39 7.86 10.91.57.1.78-.25.78-.55v-2.13c-3.2.7-3.87-1.36-3.87-1.36-.52-1.33-1.28-1.69-1.28-1.69-1.05-.72.08-.7.08-.7 1.16.08 1.77 1.19 1.77 1.19 1.03 1.77 2.7 1.26 3.36.96.1-.75.4-1.26.73-1.55-2.55-.29-5.24-1.28-5.24-5.68 0-1.26.45-2.28 1.19-3.08-.12-.29-.52-1.46.11-3.04 0 0 .97-.31 3.16 1.18.92-.25 1.9-.38 2.88-.39.98 0 1.96.13 2.88.39 2.19-1.49 3.15-1.18 3.15-1.18.64 1.58.24 2.75.12 3.04.74.8 1.18 1.82 1.18 3.08 0 4.41-2.69 5.38-5.25 5.67.41.36.78 1.06.78 2.13v3.15c0 .31.21.66.79.55 4.56-1.52 7.85-5.83 7.85-10.91C23.5 5.75 18.35.6 12 .6Z"/>
</svg>
